<?xml version="1.0" encoding="UTF-8" standalone="no"?>
<!-- Created with Inkscape (http://www.inkscape.org/) -->

<svg
   xmlns:dc="http://purl.org/dc/elements/1.1/"
   xmlns:cc="http://creativecommons.org/ns#"
   xmlns:rdf="http://www.w3.org/1999/02/22-rdf-syntax-ns#"
   xmlns:svg="http://www.w3.org/2000/svg"
   xmlns="http://www.w3.org/2000/svg"
   xmlns:sodipodi="http://sodipodi.sourceforge.net/DTD/sodipodi-0.dtd"
   xmlns:inkscape="http://www.inkscape.org/namespaces/inkscape"
   width="382.9191mm"
   height="382.9191mm"
   viewBox="0 0 382.9191 382.9191"
   version="1.1"
   id="svg8"
   inkscape:export-filename="/Users/patrickmccaffrey/Documents/Snapchat Hot Dog/Hotdog_Icon_v01.00.png"
   inkscape:export-xdpi="96"
   inkscape:export-ydpi="96"
   inkscape:version="0.92.2 5c3e80d, 2017-08-06"
   sodipodi:docname="Hotdog_Icon_v01.00.svg">
  <defs
     id="defs2" />
  <sodipodi:namedview
     id="base"
     pagecolor="#ffffff"
     bordercolor="#666666"
     borderopacity="1.0"
     inkscape:pageopacity="0.0"
     inkscape:pageshadow="2"
     inkscape:zoom="0.5"
     inkscape:cx="649.08135"
     inkscape:cy="737.48265"
     inkscape:document-units="mm"
     inkscape:current-layer="layer1"
     showgrid="false"
     fit-margin-top="0"
     fit-margin-left="0"
     fit-margin-right="0"
     fit-margin-bottom="0"
     inkscape:window-width="1920"
     inkscape:window-height="970"
     inkscape:window-x="0"
     inkscape:window-y="1"
     inkscape:window-maximized="1" />
  <metadata
     id="metadata5">
    <rdf:RDF>
      <cc:Work
         rdf:about="">
        <dc:format>image/svg+xml</dc:format>
        <dc:type
           rdf:resource="http://purl.org/dc/dcmitype/StillImage" />
        <dc:title></dc:title>
      </cc:Work>
    </rdf:RDF>
  </metadata>
  <g
     inkscape:groupmode="layer"
     id="layer4"
     inkscape:label="Arm Back"
     style="display:inline"
     transform="translate(-147.17094,-0.58087887)">
    <path
       style="display:inline;fill:#e16a4d;fill-opacity:0.98095236;stroke:none;stroke-width:0.26458332px;stroke-linecap:butt;stroke-linejoin:miter;stroke-opacity:1"
       d="m 178.56173,123.66963 c 9.68246,-1.97476 13.02759,6.60766 68.7887,52.36086 l 21.10345,-31.85302 c -62.65246,-52.627033 -57.1281,-34.30948 -66.07397,-60.704991 -16.9379,10.752432 -20.21659,25.522281 -23.81818,40.197151 z"
       id="path4591"
       inkscape:connector-curvature="0"
       sodipodi:nodetypes="ccccc" />
  </g>
  <g
     inkscape:groupmode="layer"
     id="layer14"
     inkscape:label="Ear Back"
     transform="translate(-147.17094,-0.58087887)">
    <path
       style="display:inline;fill:#2f932e;fill-opacity:1;stroke:none;stroke-width:0.26458332px;stroke-linecap:butt;stroke-linejoin:miter;stroke-opacity:1"
       d="m 325.91989,105.6075 c -3.69,-4.82865 -3.52525,-11.177357 -1.38906,-17.264066 2.94327,-8.386383 9.71908,-12.095028 13.93739,-12.143435 z"
       id="path4678"
       inkscape:connector-curvature="0"
       sodipodi:nodetypes="cscc" />
  </g>
  <g
     inkscape:groupmode="layer"
     id="layer13"
     inkscape:label="Headphone Back"
     style="display:inline"
     transform="translate(-147.17094,-0.58087887)">
    <path
       style="display:inline;fill:#636066;fill-opacity:1;stroke:none;stroke-width:0.26458332px;stroke-linecap:butt;stroke-linejoin:miter;stroke-opacity:1"
       d="m 392.52239,44.646672 c 5.89731,-4.809569 12.22358,-9.391626 18.51141,-11.07033 l -22.82481,-8.793167 c -17.03591,10.87148 -30.99673,30.408991 -38.54026,45.041596 -1.06565,2.067108 -6.61105,2.29463 -9.35445,4.630445 -8.21981,6.998603 -15.73339,25.655874 -14.49936,33.863044 0.61626,4.09858 4.31555,8.02088 6.8755,11.83336 z"
       id="path4674"
       inkscape:connector-curvature="0"
       sodipodi:nodetypes="cccssscc" />
  </g>
  <g
     inkscape:groupmode="layer"
     id="layer7"
     inkscape:label="Body"
     style="display:inline"
     transform="translate(-147.17094,-0.58087887)">
    <path
       style="fill:#e16a4d;fill-opacity:1;stroke:none;stroke-width:1;stroke-linecap:butt;stroke-linejoin:miter;stroke-miterlimit:4;stroke-dasharray:none;stroke-opacity:1"
       d="M 231.28111,328.32852 C 285.78886,244.57345 348.00084,75.801947 353.78572,68.169731 c 45.876,-60.5259976 167.9477,-6.182662 139.78462,61.458829 -34.00385,81.66975 -65.0844,156.56669 -97.6266,234.85003 -97.20864,15.20525 -142.05792,-11.54328 -164.66263,-36.15007 z"
       id="path4602"
       inkscape:connector-curvature="0"
       sodipodi:nodetypes="csscc" />
  </g>
  <g
     inkscape:groupmode="layer"
     id="layer9"
     inkscape:label="Rellish"
     style="display:inline"
     transform="translate(-147.17094,-0.58087887)">
    <path
       style="display:inline;fill:#2f932e;fill-opacity:1;stroke:none;stroke-width:0.26458332px;stroke-linecap:butt;stroke-linejoin:miter;stroke-opacity:1"
       d="m 294.82142,360.49069 c 32.07863,-65.16225 78.57853,-137.46485 90.49541,-159.33176 20.41625,-37.46286 55.45778,-19.7741 83.33835,-12.36446 l 1.76242,-4.38089 c 15.34884,7.65357 14.68149,38.48956 13.26044,55.01516 l -179.17165,125.3347 z"
       id="path4653"
       inkscape:connector-curvature="0"
       sodipodi:nodetypes="csccccc" />
    <path
       style="fill:#2f932e;fill-opacity:1;stroke:none;stroke-width:0.26458332px;stroke-linecap:butt;stroke-linejoin:miter;stroke-opacity:1"
       d="m 332.96546,117.0072 -13.74843,33.03921 c -3.68656,14.44859 -2.52574,18.17223 -20.26525,49.93038 l -43.24844,76.43561 c -2.24887,22.66397 -11.96571,37.29978 -24.42223,51.91612 l -20.02192,-18.25657 c 13.13003,-66.55367 49.03313,-146.268 87.0151,-182.99226 9.98515,-6.34635 10.76537,-15.43355 34.69117,-10.07249 z"
       id="path4666"
       inkscape:connector-curvature="0"
       sodipodi:nodetypes="cccccccc" />
  </g>
  <g
     inkscape:groupmode="layer"
     id="layer10"
     inkscape:label="Bun"
     style="display:inline"
     transform="translate(-147.17094,-0.58087887)">
    <path
       style="fill:#fd901e;fill-opacity:1;stroke:none;stroke-width:0.26458332px;stroke-linecap:butt;stroke-linejoin:miter;stroke-opacity:1"
       d="m 483.81208,236.78291 c 0.59366,7.64339 -13.29776,2.06476 -24.67404,-3.9277 -39.06223,-20.57606 -53.61334,-19.96028 -78.72591,5.183 -28.73045,28.76556 -57.45429,79.86565 -76.76029,123.87673 86.0471,36.79993 130.1864,-19.18068 161.93166,-62.28882 9.92615,-18.40202 24.85231,-55.00224 18.22858,-62.84321 z"
       id="path4660"
       inkscape:connector-curvature="0"
       sodipodi:nodetypes="cssccc" />
    <path
       style="display:inline;fill:#fd901e;fill-opacity:1;stroke:none;stroke-width:0.26458332px;stroke-linecap:butt;stroke-linejoin:miter;stroke-opacity:1"
       d="m 300.53141,125.50089 c -8.38561,6.809 -4.97745,17.63362 -10.8887,30.10955 -13.49,28.47119 -35.33097,62.6737 -49.22795,90.93959 -11.96787,24.34216 -20.09911,41.50466 -29.15557,63.52192 l -17.82766,-22.40258 c 7.72991,-19.5764 16.34718,-38.84247 26.18907,-60.48925 13.52885,-29.75607 39.8319,-74.6777 48.47721,-83.35871 6.29247,-6.31847 14.05722,-22.34454 32.4336,-18.32052 z"
       id="path4663"
       inkscape:connector-curvature="0"
       sodipodi:nodetypes="cssccssc" />
  </g>
  <g
     inkscape:groupmode="layer"
     id="layer8"
     inkscape:label="Face"
     style="display:inline"
     transform="translate(-147.17094,-0.58087887)">
    <ellipse
       style="fill:#160605;fill-opacity:1;stroke:none;stroke-width:0.49399886;stroke-miterlimit:4;stroke-dasharray:none;stroke-opacity:1"
       id="path4605"
       cx="401.71201"
       cy="138.62686"
       rx="9.6167431"
       ry="9.7947741" />
    <path
       style="fill:#160605;fill-opacity:1;stroke:none;stroke-width:0.26499999;stroke-linecap:butt;stroke-linejoin:miter;stroke-miterlimit:4;stroke-dasharray:none;stroke-opacity:1"
       d="m 338.03397,109.83763 c 2.49033,-8.48451 15.20886,-8.73657 17.47324,-0.65461 1.1573,4.1306 -1.47778,11.28912 -6.04261,12.7902 -4.11937,1.35459 -14.30461,-2.34402 -11.43063,-12.13559 z"
       id="path4649"
       inkscape:connector-curvature="0"
       sodipodi:nodetypes="ssss" />
    <path
       style="display:inline;fill:#160605;fill-opacity:1;stroke:none;stroke-width:0.26458332px;stroke-linecap:butt;stroke-linejoin:miter;stroke-opacity:1"
       d="m 330.16031,152.28068 c 9.57042,22.12979 32.46322,28.78026 48.12265,26.90194 6.5595,-0.7868 4.54166,-9.01347 -0.0971,-9.24546 -17.81917,-0.89112 -29.96599,-6.32156 -40.77908,-22.23064 -2.31575,-3.40712 -9.35915,-0.3111 -7.24643,4.57416 z"
       id="path4651"
       inkscape:connector-curvature="0"
       sodipodi:nodetypes="sssss" />
  </g>
  <g
     inkscape:groupmode="layer"
     id="layer5"
     inkscape:label="Mustard"
     style="display:inline"
     transform="translate(-147.17094,-0.58087887)">
    <path
       style="fill:#eed035;fill-opacity:0.95714285;stroke:none;stroke-width:0.26458332px;stroke-linecap:butt;stroke-linejoin:miter;stroke-opacity:1"
       d="m 332.9481,219.66217 c 11.41795,-3.8108 21.80249,12.12448 12.08523,18.93352 -16.20197,11.35299 -36.35497,24.05878 -36.75922,53.17502 l -16.9834,54.03864 c -2.95862,3.37484 -5.91559,6.75022 -9.43011,9.93976 -8.36512,-2.23655 -15.98483,-5.34276 -22.64148,-9.57253 4.83144,-4.69858 9.811,-9.36013 13.91826,-14.23975 l 11.01662,-28.0809 c 1.91623,-13.97885 3.05323,-27.6087 7.5029,-40.48551 6.39177,-18.49699 28.11991,-39.31227 41.2912,-43.70825 z"
       id="path4596"
       inkscape:connector-curvature="0"
       sodipodi:nodetypes="ssccccccss" />
  </g>
  <g
     inkscape:groupmode="layer"
     id="layer6"
     inkscape:label="Ketchup"
     style="display:inline"
     transform="translate(-147.17094,-0.58087887)">
    <path
       style="fill:#ec2d34;fill-opacity:0.99047618;stroke:none;stroke-width:0.26458332px;stroke-linecap:butt;stroke-linejoin:miter;stroke-opacity:1"
       d="m 231.28111,328.32852 c 6.34491,-9.88443 13.62464,-19.09621 17.8257,-30.91804 6.29592,-17.71675 9.68269,-36.73266 18.00123,-53.98069 9.32127,-19.32716 22.36242,-36.88615 39.90718,-50.65726 7.97692,-6.26119 24.21014,3.82635 15.05617,15.61009 -8.61291,11.08725 -23.85157,21.40733 -35.24859,44.91677 -8.42923,17.38757 -11.63481,35.96332 -18.32927,53.67857 -5.07731,13.43585 -13.56104,23.66786 -19.23565,33.43581 -7.18567,-1.76524 -14.00888,-5.22561 -17.97677,-12.08525 z"
       id="path4599"
       inkscape:connector-curvature="0"
       sodipodi:nodetypes="csssssscc" />
  </g>
  <g
     inkscape:groupmode="layer"
     id="layer3"
     inkscape:label="Arm Front"
     style="display:inline"
     transform="translate(-147.17094,-0.58087887)">
    <path
       style="fill:#e16a4d;fill-opacity:0.99047618;stroke:none;stroke-width:0.26458332px;stroke-linecap:butt;stroke-linejoin:miter;stroke-opacity:1"
       d="m 459.39371,293.66872 c -15.5398,-1.05446 -35.54173,3.33275 -46.65128,18.40815 -35.21505,-12.52193 -72.88535,-23.204 -85.18288,-23.15821 -54.51353,0.20299 -72.59303,48.40493 -37.56461,56.81238 19.28242,4.62813 57.85327,-4.71839 95.32532,13.00464 34.49899,-4.2669 69.35148,-15.85643 83.47093,-52.96326 -1.46548,-5.89714 -5.02433,-11.80696 -9.39748,-12.1037 z"
       id="path4589"
       inkscape:connector-curvature="0"
       sodipodi:nodetypes="scssccs" />
  </g>
  <g
     inkscape:groupmode="layer"
     id="layer11"
     inkscape:label="Headphone Front"
     style="display:inline"
     transform="translate(-147.17094,-0.58087887)">
    <path
       style="fill:#635f66;fill-opacity:0.98571424;stroke:none;stroke-width:0.26458332px;stroke-linecap:butt;stroke-linejoin:miter;stroke-opacity:1"
       d="m 489.87604,107.55312 c -0.91626,6.4382 -0.75928,15.18946 -4.85078,20.95162 -5.56658,7.83955 -14.43197,14.92732 -18.32101,26.99941 -2.63915,8.19223 -4.55617,19.30562 2.2697,25.86772 6.96268,6.69361 16.93556,1.114 19.71146,-1.85208 l 25.66458,-30.03021 z"
       id="path4669"
       inkscape:connector-curvature="0"
       sodipodi:nodetypes="csssccc" />
  </g>
  <g
     inkscape:groupmode="layer"
     id="layer12"
     inkscape:label="Ear Front"
     style="display:inline"
     transform="translate(-147.17094,-0.58087887)">
    <path
       style="fill:#2f932e;fill-opacity:1;stroke:none;stroke-width:0.26458332px;stroke-linecap:butt;stroke-linejoin:miter;stroke-opacity:1"
       d="m 484.27901,177.16689 c 0.66834,1.24252 4.73088,2.33446 8.03347,2.82757 6.1536,0.91879 14.32557,-7.61688 17.31705,-16.29795 l -4.30305,-19.17659 c -2.00272,-0.8419 -4.32432,-2.46519 -6.14847,-1.96443 -10.17509,2.79327 -20.08717,24.96607 -14.899,34.6114 z"
       id="path4672"
       inkscape:connector-curvature="0"
       sodipodi:nodetypes="ssccss" />
  </g>
  <g
     inkscape:label="Circle"
     inkscape:groupmode="layer"
     id="layer1"
     transform="translate(-21.682861,-56.432068)"
     style="display:none">
    <circle
       id="path3764-7"
       cx="212.87515"
       cy="247.62436"
       r="180.62741"
       style="fill:none;stroke:#00ffff;stroke-width:15;stroke-miterlimit:4;stroke-dasharray:none;stroke-opacity:1" />
    <circle
       id="path3764"
       cx="213.14241"
       cy="247.89162"
       r="188.95955"
       style="fill:none;stroke:#000000;stroke-width:5;stroke-miterlimit:4;stroke-dasharray:none;stroke-opacity:1" />
  </g>
</svg>
